<svg id="Layer_1" data-name="Layer 1" xmlns="http://www.w3.org/2000/svg" viewBox="0 0 119.78 109.39">
  <defs>
    <style>
      .cls-1 {
        fill: #000;
      }
    </style>
  </defs>
  <g id="흰색_로고" data-name="흰색 로고">
    <rect class="cls-1" x="144.49" y="53.94" width="8.49" height="31.56" transform="translate(14.26 -110.14) rotate(30)"/>
    <rect class="cls-1" x="128.55" y="55.77" width="8.49" height="31.56" transform="translate(-57.51 44.27) rotate(-35.1)"/>
    <rect class="cls-1" x="96.03" y="34.65" width="8.49" height="32.75"/>
    <rect class="cls-1" x="124.45" y="92.37" width="8.2" height="32.05" transform="translate(196.43 -65.26) rotate(90)"/>
    <rect class="cls-1" y="0.39" width="10" height="109"/>
    <rect class="cls-1" x="64" y="0.4" width="10" height="108.99"/>
    <rect class="cls-1" x="72.77" y="112.75" width="9.5" height="74" transform="translate(186.75 27.11) rotate(90)"/>
    <rect class="cls-1" x="72.78" y="12.86" width="9.5" height="74" transform="translate(86.87 -72.78) rotate(90)"/>
    <rect class="cls-1" x="72.84" y="63.93" width="9.5" height="73.88" transform="translate(137.93 -21.84) rotate(90)"/>
    <ellipse class="cls-1" cx="27.04" cy="28.74" rx="4.85" ry="5.27"/>
    <ellipse class="cls-1" cx="48.04" cy="28.74" rx="4.85" ry="5.27"/>
  </g>
</svg>
